<svg width="120" height="120" viewBox="0 0 120 120" fill="none" xmlns="http://www.w3.org/2000/svg">
<rect x="1" y="1" width="118" height="118" rx="19" fill="#272721" stroke="#C4C4C4" stroke-width="2"/>
<g filter="url(#filter0_i)">
<path d="M0 80C0 35.8172 35.8172 0 80 0H120V40C120 84.1828 84.1828 120 40 120H0V80Z" fill="#FB9232"/>
</g>
<path d="M80 2H118V40C118 83.0782 83.0782 118 40 118H2V80C2 36.9218 36.9218 2 80 2Z" stroke="#C4C4C4" stroke-width="4"/>
<path d="M58.2864 22.8474C59.0637 21.5558 60.9363 21.5558 61.7136 22.8474L72.7295 41.152C73.0087 41.6161 73.4642 41.947 73.9918 42.0692L94.8046 46.8895C96.2733 47.2296 96.8519 49.0106 95.8637 50.149L81.8591 66.2821C81.5041 66.6911 81.3301 67.2266 81.3769 67.7661L83.2241 89.0498C83.3544 90.5517 81.8395 91.6523 80.4514 91.0643L60.7802 82.7305C60.2815 82.5193 59.7185 82.5193 59.2198 82.7305L39.5486 91.0643C38.1605 91.6523 36.6456 90.5517 36.7759 89.0498L38.6231 67.7661C38.6699 67.2266 38.4959 66.6911 38.1409 66.2821L24.1363 50.149C23.1481 49.0106 23.7267 47.2296 25.1954 46.8895L46.0082 42.0692C46.5358 41.947 46.9913 41.6161 47.2705 41.152L58.2864 22.8474Z" fill="#272721"/>
<defs>
<filter id="filter0_i" x="0" y="0" width="120" height="126" filterUnits="userSpaceOnUse" color-interpolation-filters="sRGB">
<feFlood flood-opacity="0" result="BackgroundImageFix"/>
<feBlend mode="normal" in="SourceGraphic" in2="BackgroundImageFix" result="shape"/>
<feColorMatrix in="SourceAlpha" type="matrix" values="0 0 0 0 0 0 0 0 0 0 0 0 0 0 0 0 0 0 127 0" result="hardAlpha"/>
<feOffset dy="14"/>
<feGaussianBlur stdDeviation="3"/>
<feComposite in2="hardAlpha" operator="arithmetic" k2="-1" k3="1"/>
<feColorMatrix type="matrix" values="0 0 0 0 0 0 0 0 0 0 0 0 0 0 0 0 0 0 0.5 0"/>
<feBlend mode="normal" in2="shape" result="effect1_innerShadow"/>
</filter>
</defs>
</svg>
