<svg width="26" height="26" viewBox="0 0 26 26" fill="none" xmlns="http://www.w3.org/2000/svg">
<path d="M12.9967 8.96603C10.7755 8.96603 8.96282 10.7787 8.96282 13C8.96282 15.2213 10.7755 17.034 12.9967 17.034C15.2179 17.034 17.0306 15.2213 17.0306 13C17.0306 10.7787 15.2179 8.96603 12.9967 8.96603ZM25.0954 13C25.0954 11.3295 25.1105 9.67417 25.0167 8.00671C24.9229 6.06992 24.4811 4.35101 23.0648 2.93473C21.6455 1.51543 19.9297 1.07662 17.9929 0.982811C16.3225 0.888998 14.6672 0.904129 12.9997 0.904129C11.3293 0.904129 9.67397 0.888998 8.00655 0.982811C6.06979 1.07662 4.35092 1.51846 2.93467 2.93473C1.51539 4.35404 1.07659 6.06992 0.982779 8.00671C0.888967 9.67719 0.904098 11.3325 0.904098 13C0.904098 14.6675 0.888967 16.3258 0.982779 17.9933C1.07659 19.9301 1.51841 21.649 2.93467 23.0653C4.35395 24.4846 6.06979 24.9234 8.00655 25.0172C9.677 25.111 11.3323 25.0959 12.9997 25.0959C14.6702 25.0959 16.3255 25.111 17.9929 25.0172C19.9297 24.9234 21.6486 24.4816 23.0648 23.0653C24.4841 21.646 24.9229 19.9301 25.0167 17.9933C25.1136 16.3258 25.0954 14.6705 25.0954 13ZM12.9967 19.2068C9.562 19.2068 6.79002 16.4348 6.79002 13C6.79002 9.56522 9.562 6.79319 12.9967 6.79319C16.4314 6.79319 19.2034 9.56522 19.2034 13C19.2034 16.4348 16.4314 19.2068 12.9967 19.2068ZM19.4576 7.98855C18.6557 7.98855 18.0081 7.34094 18.0081 6.53898C18.0081 5.73703 18.6557 5.08942 19.4576 5.08942C20.2596 5.08942 20.9072 5.73703 20.9072 6.53898C20.9074 6.72941 20.8701 6.91802 20.7973 7.09399C20.7245 7.26997 20.6178 7.42986 20.4831 7.56452C20.3485 7.69917 20.1886 7.80593 20.0126 7.8787C19.8366 7.95146 19.648 7.98879 19.4576 7.98855Z" fill="white"/>
</svg>
