<svg width="23" height="27" viewBox="0 0 23 27" fill="none" xmlns="http://www.w3.org/2000/svg">
<path d="M6.94253 21.2499C5.69442 21.2499 4.68458 22.4124 4.68458 23.8333C4.68458 25.2541 5.69442 26.4166 6.94253 26.4166C8.19065 26.4166 9.21183 25.2541 9.21183 23.8333C9.21183 22.4124 8.19065 21.2499 6.94253 21.2499ZM0.134644 0.583252V3.16659H2.40394L6.48867 12.9703L4.9569 16.1349C4.77536 16.4966 4.67324 16.9228 4.67324 17.3749C4.67324 18.7958 5.69442 19.9583 6.94253 19.9583H20.5583V17.3749H7.41909C7.26024 17.3749 7.13542 17.2328 7.13542 17.052L7.16946 16.897L8.19065 14.7916H16.6438C17.4948 14.7916 18.2436 14.262 18.6294 13.4612L22.6915 5.07825C22.7822 4.89742 22.8276 4.67783 22.8276 4.45825C22.8276 3.74784 22.317 3.16659 21.693 3.16659H4.91151L3.84494 0.583252H0.134644ZM18.289 21.2499C17.0409 21.2499 16.0311 22.4124 16.0311 23.8333C16.0311 25.2541 17.0409 26.4166 18.289 26.4166C19.5371 26.4166 20.5583 25.2541 20.5583 23.8333C20.5583 22.4124 19.5371 21.2499 18.289 21.2499Z" fill="black"/>
</svg>
